<?xml version="1.0" standalone="no"?>
<!DOCTYPE svg PUBLIC "-//W3C//DTD SVG 20010904//EN"
 "http://www.w3.org/TR/2001/REC-SVG-20010904/DTD/svg10.dtd">
<svg version="1.0" xmlns="http://www.w3.org/2000/svg"
 width="120" height="40" viewBox="0 0 2065.000000 750.000000"
 preserveAspectRatio="xMidYMid meet">
<metadata>
Created by potrace 1.16, written by Peter Selinger 2001-2019
</metadata>
<g transform="translate(0.000000,750.000000) scale(0.100000,-0.100000)"
fill="#000" stroke="none">
<path d="M11157 7446 c-129 -100 -339 -342 -444 -511 -29 -47 -98 -186 -141
-285 -30 -70 -79 -219 -93 -282 -19 -88 -11 -85 -151 -55 -191 40 -303 51
-479 44 -86 -3 -185 -11 -220 -17 -244 -44 -277 -54 -285 -86 -7 -28 0 -133
17 -274 34 -273 89 -435 222 -655 7 -11 47 -59 91 -108 l78 -87 -68 -63 c-218
-197 -451 -450 -508 -552 -9 -16 -28 -48 -41 -70 -42 -68 -38 -75 108 -220
150 -150 235 -216 392 -303 236 -132 518 -211 756 -212 85 0 264 27 349 54
115 36 283 112 405 185 l50 30 -3 -102 c-2 -56 -7 -113 -12 -127 -5 -14 -12
-52 -16 -85 -7 -63 -44 -179 -88 -278 -29 -65 -135 -242 -179 -302 -47 -62
-206 -212 -267 -252 -30 -20 -85 -56 -122 -80 -37 -24 -88 -52 -115 -62 -26
-10 -74 -31 -107 -46 -32 -15 -73 -31 -90 -36 -17 -4 -74 -19 -127 -32 -52
-14 -133 -31 -180 -37 -46 -6 -103 -16 -126 -21 -54 -12 -218 -12 -280 0 -26
5 -79 15 -118 21 -191 34 -288 67 -465 156 -149 75 -193 104 -260 173 -30 31
-76 70 -101 87 -87 59 -277 356 -339 529 -40 113 -48 140 -72 240 -21 91 -23
122 -23 360 0 250 1 264 27 360 45 170 80 266 139 382 77 151 173 276 322 419
135 130 243 201 430 284 54 24 103 52 109 63 9 18 -7 128 -42 284 -6 23 -17
94 -25 158 -21 159 -41 193 -103 179 -85 -19 -270 -99 -379 -162 -37 -22 -86
-50 -108 -62 -22 -12 -64 -41 -94 -63 -30 -23 -87 -66 -125 -96 -169 -129
-399 -369 -465 -486 -17 -29 -34 -56 -39 -59 -13 -8 -182 -350 -182 -368 0 -8
-4 -18 -9 -24 -12 -11 -62 -184 -95 -324 -25 -108 -61 -377 -71 -535 -8 -121
21 -381 60 -540 78 -319 238 -625 465 -890 132 -153 305 -313 430 -396 239
-159 511 -275 748 -319 26 -5 81 -15 122 -23 41 -8 105 -20 141 -26 81 -14
454 -15 546 -1 38 5 104 14 148 21 98 13 151 25 231 50 34 10 70 19 81 19 10
0 23 4 29 8 5 4 27 14 49 21 22 8 63 24 90 36 28 12 79 35 115 51 139 61 353
196 483 306 155 131 377 386 463 533 81 138 166 328 213 472 74 231 95 375 96
663 0 210 -9 308 -41 460 -41 189 -40 173 -2 216 87 99 179 232 243 349 15 28
30 55 34 60 4 6 18 37 30 70 13 33 29 72 36 86 8 14 19 43 24 65 33 128 40
155 52 214 19 95 23 444 5 506 -8 27 -17 69 -20 94 -12 87 -50 202 -113 338
-50 112 -152 293 -183 327 -15 17 -49 59 -75 94 -62 82 -205 245 -219 250 -6
2 -50 38 -97 79 -48 41 -113 92 -145 115 -33 22 -77 54 -99 72 -39 31 -108 75
-117 75 -2 0 -30 -20 -61 -44z m188 -835 c16 -18 53 -69 82 -114 217 -340 280
-663 194 -1000 -25 -98 -81 -226 -117 -268 -8 -8 -14 -19 -14 -23 0 -4 -7 -18
-16 -32 l-17 -25 -24 23 c-63 58 -226 273 -262 344 -41 81 -91 228 -110 322
-6 29 -11 105 -11 168 0 214 50 410 146 574 59 101 61 103 93 81 14 -11 39
-33 56 -50z m-1120 -882 c135 -52 232 -128 286 -224 15 -27 28 -54 28 -60 -1
-21 -92 -32 -165 -19 -99 16 -186 64 -264 143 -54 55 -120 158 -120 187 0 16
177 -5 235 -27z m458 -910 c40 -5 101 -19 137 -30 83 -26 224 -99 228 -119 4
-24 -136 -162 -218 -215 -232 -149 -445 -185 -690 -116 -92 26 -214 81 -258
117 -16 12 132 162 210 212 128 81 236 126 358 147 96 17 144 17 233 4z M791
6272 c-655 -2 -747 -4 -762 -18 -16 -14 -17 -149 -15 -2169 1 -1635 4 -2157
13 -2166 8 -8 94 -13 287 -16 269 -4 275 -4 296 17 20 20 21 31 21 223 -1 111
2 397 6 635 l6 432 529 0 c291 0 594 5 674 11 206 15 493 81 601 138 10 5 51
26 92 46 184 91 387 264 497 425 68 98 146 256 174 350 13 41 26 84 30 95 40
105 55 245 55 500 -1 202 -3 244 -24 340 -12 61 -27 114 -32 120 -5 5 -9 15
-9 23 0 7 -20 65 -45 129 -53 135 -167 315 -246 390 -29 26 -75 71 -103 99
-91 92 -269 204 -411 261 -84 33 -148 54 -225 72 -291 67 -287 67 -1409 63z
m1014 -661 c245 -25 377 -72 542 -193 156 -114 267 -347 289 -603 5 -49 7 -93
6 -97 -1 -5 -4 -47 -7 -95 -3 -49 -9 -99 -14 -113 -5 -14 -14 -50 -21 -80 -15
-63 -38 -111 -91 -190 -87 -130 -205 -216 -414 -299 -40 -16 -162 -44 -225
-52 -36 -4 -327 -8 -647 -8 l-583 -1 0 103 c0 56 0 428 -1 827 -1 399 -1 744
0 767 l1 42 538 0 c295 0 578 -4 627 -8z M4244 6272 c-203 -2 -244 -5 -255
-18 -10 -12 -13 -441 -15 -2172 -2 -1952 -1 -2159 13 -2174 15 -17 100 -18
1508 -18 1376 0 1494 1 1506 17 20 23 26 600 7 626 -14 18 -109 20 -2013 30
l-390 3 -3 604 c-1 332 2 608 6 612 5 5 463 9 1018 9 865 0 1012 3 1032 15 22
14 22 15 22 309 0 345 12 317 -133 314 -218 -5 -1927 8 -1934 15 -9 9 -13 926
-5 1079 l5 97 1141 0 c627 0 1151 3 1163 6 12 3 24 14 27 23 10 36 11 600 0
611 -10 10 -2069 19 -2700 12z M12743 6228 c-13 -14 -14 -149 -13 -1140 1
-618 3 -1581 4 -2140 1 -951 2 -1019 18 -1038 17 -19 29 -20 331 -20 255 0
317 3 333 14 17 13 19 29 21 163 4 360 13 1913 13 2368 l0 500 28 -34 c116
-145 193 -250 212 -287 13 -24 30 -46 39 -49 15 -5 88 -93 203 -247 24 -31 88
-112 143 -180 55 -67 109 -135 120 -149 66 -89 210 -276 267 -349 93 -116 221
-280 293 -374 33 -42 97 -122 142 -177 45 -54 92 -114 104 -132 13 -17 57 -75
99 -127 42 -52 102 -129 134 -170 31 -41 84 -109 117 -150 64 -81 129 -163
239 -304 38 -49 84 -107 103 -130 20 -22 59 -70 89 -106 l54 -65 236 -3 c205
-2 238 0 252 14 14 13 16 53 17 287 0 150 2 1110 5 2135 4 1851 4 1862 -16
1882 -19 19 -33 20 -319 20 -273 0 -301 -2 -321 -18 l-22 -18 -3 -1450 c-4
-1723 -1 -1530 -21 -1513 -17 14 -143 169 -219 269 -27 36 -57 71 -66 77 -10
7 -32 37 -49 65 -18 29 -52 76 -76 103 -104 120 -123 143 -157 196 -19 31 -40
60 -46 64 -6 3 -51 59 -99 123 -156 206 -181 238 -198 253 -9 7 -36 43 -61 79
-24 36 -85 118 -136 182 -175 223 -222 283 -252 327 -16 24 -58 75 -92 113
-35 39 -63 75 -63 80 0 9 -13 26 -155 206 -38 49 -128 164 -200 256 -71 92
-152 196 -180 231 -27 35 -91 117 -141 182 -51 65 -107 135 -125 156 l-34 37
-268 3 c-240 2 -270 0 -284 -15z M16723 6234 c-7 -3 -13 -13 -13 -22 0 -21
359 -651 432 -759 15 -23 28 -45 28 -49 0 -4 24 -43 54 -88 45 -68 310 -510
480 -801 26 -44 71 -119 99 -166 29 -47 72 -119 96 -160 23 -41 58 -96 76
-124 18 -27 47 -77 65 -110 18 -33 41 -72 51 -87 11 -14 19 -29 19 -33 0 -3
32 -59 72 -123 39 -64 79 -130 88 -147 9 -16 34 -61 55 -99 l38 -68 4 -732 c3
-481 8 -735 15 -744 15 -17 558 -18 576 0 9 9 12 186 12 735 l0 723 49 82
c120 204 147 251 225 378 133 219 222 368 411 685 98 165 200 335 227 378 28
43 64 105 81 136 27 49 86 147 298 494 14 23 43 74 64 112 21 39 71 124 110
190 40 66 82 136 93 155 11 19 40 69 66 111 48 79 55 102 34 116 -7 4 -160 9
-339 10 l-327 3 -14 -23 c-9 -12 -19 -33 -23 -47 -8 -25 -71 -135 -130 -225
-18 -27 -65 -106 -105 -175 -41 -69 -98 -165 -128 -215 -30 -49 -84 -139 -120
-200 -35 -60 -122 -207 -192 -325 -70 -118 -160 -271 -200 -340 -40 -69 -93
-159 -118 -200 -110 -186 -207 -348 -226 -382 -12 -21 -25 -36 -31 -35 -8 3
-121 190 -241 397 -20 36 -52 88 -70 115 -17 28 -61 102 -97 165 -35 63 -93
163 -128 222 -120 201 -184 313 -189 328 -3 8 -22 41 -42 73 -21 31 -38 60
-38 63 0 3 -13 25 -30 49 -16 24 -30 46 -30 49 0 3 -16 30 -35 61 -20 30 -39
63 -42 73 -8 21 -85 152 -168 287 -34 55 -84 140 -111 188 -27 50 -58 92 -69
96 -23 8 -643 12 -662 5z M10025 1093 c-301 -44 -477 -215 -503 -490 -5 -51
-6 -115 -1 -145 42 -263 268 -449 544 -448 170 1 299 52 405 160 105 107 152
223 153 378 1 258 -149 456 -395 521 -82 22 -159 31 -203 24z m130 -256 c106
-34 153 -76 193 -176 63 -155 -20 -347 -169 -394 -84 -26 -158 -22 -232 11
-75 35 -121 80 -155 151 -22 47 -24 63 -20 135 6 97 30 155 86 209 67 65 202
94 297 64z M8230 1087 c-3 -3 -110 -7 -237 -10 -166 -3 -237 -8 -248 -17 -13
-11 -15 -80 -15 -515 0 -441 2 -504 15 -515 21 -18 161 -24 197 -9 31 13 41
37 37 90 -1 19 -2 89 -1 157 l2 122 220 0 220 0 10 26 c14 37 12 167 -2 187
-12 15 -37 17 -230 17 l-218 1 0 109 0 110 238 0 c186 0 242 3 257 14 13 10
20 30 23 74 6 88 -4 131 -33 142 -28 11 -227 25 -235 17z M15204 1071 c-69
-20 -152 -69 -188 -111 -49 -58 -68 -115 -67 -197 2 -171 86 -249 341 -317
174 -46 218 -81 185 -145 -21 -41 -66 -56 -165 -55 -88 2 -167 21 -248 63 -23
11 -47 21 -55 21 -13 0 -56 -68 -84 -132 -11 -26 -10 -30 20 -51 134 -100 333
-140 496 -102 81 19 125 40 179 84 68 55 95 109 100 205 4 73 1 87 -23 139
-46 97 -136 149 -340 197 -112 26 -150 44 -165 80 -17 40 5 80 55 104 56 26
154 18 270 -22 68 -24 92 -28 103 -20 19 16 72 123 72 146 0 45 -85 87 -240
117 -97 19 -170 18 -246 -4z M19995 1083 c-144 -33 -248 -93 -326 -186 -62
-75 -93 -134 -109 -212 -23 -110 -17 -213 20 -300 4 -11 14 -36 21 -55 18 -47
141 -174 203 -209 63 -36 201 -71 275 -71 207 1 400 115 479 283 40 84 51 133
52 216 1 267 -129 447 -376 520 -67 20 -185 27 -239 14z m204 -220 c101 -32
167 -128 180 -259 6 -69 5 -84 -20 -164 -25 -79 -92 -136 -194 -165 -105 -31
-220 -1 -296 76 -58 60 -81 118 -82 209 -1 102 22 167 80 225 48 48 89 74 138
86 54 13 137 9 194 -8z M10825 1073 c-67 -5 -85 -15 -85 -48 0 -21 123 -410
170 -540 22 -61 84 -248 109 -330 31 -98 39 -115 66 -125 34 -13 171 -13 195
0 20 11 34 46 144 360 71 200 90 250 95 250 3 0 22 -49 43 -108 20 -59 55
-159 78 -222 22 -63 52 -150 66 -193 31 -94 41 -100 167 -95 76 3 90 6 100 23
12 20 84 226 133 380 25 78 78 230 95 270 12 31 109 329 109 337 0 4 -7 14
-16 22 -12 12 -36 16 -100 16 -70 0 -87 -3 -101 -19 -15 -18 -54 -121 -92
-247 -10 -33 -25 -73 -34 -90 -8 -16 -36 -92 -62 -169 -26 -77 -48 -141 -50
-143 -2 -2 -88 255 -116 348 -6 19 -14 44 -19 55 -4 11 -18 54 -30 95 -51 173
-48 170 -161 170 -62 0 -92 -4 -102 -14 -13 -14 -29 -51 -79 -186 -11 -30 -23
-64 -28 -75 -4 -11 -13 -36 -20 -55 -7 -19 -16 -44 -20 -55 -5 -11 -11 -29
-13 -40 -6 -24 -78 -229 -82 -233 -3 -4 -29 70 -65 188 -17 58 -40 130 -50
160 -9 30 -34 108 -55 172 -20 64 -42 121 -48 127 -17 13 -71 19 -142 14z
M19129 1062 c-18 -13 -19 -32 -19 -496 0 -361 3 -485 12 -494 19 -19 172 -16
189 4 10 13 14 110 16 473 1 251 0 468 -3 483 -4 19 -14 30 -38 38 -42 13
-133 9 -157 -8z M8707 1052 c-15 -17 -17 -67 -17 -508 0 -408 2 -493 14 -510
14 -18 29 -19 338 -19 315 0 365 4 380 28 4 7 8 51 8 99 0 123 11 118 -270
118 l-225 0 -2 390 c-1 291 -4 394 -13 405 -9 11 -36 15 -105 15 -76 0 -95 -3
-108 -18z M12523 1059 c-11 -4 -23 -18 -26 -31 -11 -42 -7 -959 4 -979 9 -18
27 -19 368 -19 421 0 391 -9 391 113 0 65 -3 80 -21 98 -20 20 -30 21 -153 18
-72 -1 -182 -2 -243 -1 l-113 2 0 95 0 95 214 0 214 0 16 25 c19 29 18 137 -3
174 -13 23 -14 23 -165 21 -83 -2 -179 -3 -214 -2 l-63 2 3 88 3 87 231 -3
c221 -2 232 -2 257 18 25 20 27 27 27 94 0 121 23 114 -373 113 -183 0 -343
-4 -354 -8z M13590 1062 c-41 -1 -80 -8 -87 -14 -10 -8 -13 -111 -13 -499 0
-430 2 -489 16 -503 11 -12 36 -16 99 -16 112 0 115 4 115 162 l0 118 104 0
104 0 40 -62 c22 -35 65 -97 94 -138 l54 -75 96 -3 c77 -2 99 0 112 13 9 9 16
22 16 29 0 10 -108 183 -166 264 -15 23 -14 24 49 82 35 33 70 74 76 92 7 18
17 41 21 50 16 28 22 141 11 188 -6 25 -13 59 -17 75 -29 123 -171 221 -334
230 -127 8 -311 11 -390 7z m430 -236 c56 -27 75 -61 75 -136 0 -51 -5 -72
-23 -97 -32 -45 -78 -57 -222 -58 l-125 0 -3 152 -3 152 58 4 c108 8 207 1
243 -17z M15814 1045 c-19 -30 -16 -157 4 -177 9 -9 57 -14 150 -16 75 -2 139
-6 141 -8 3 -2 6 -179 8 -392 3 -349 5 -388 20 -399 24 -18 164 -17 189 1 18
14 19 32 22 402 1 214 4 390 6 392 2 1 68 5 146 7 85 3 148 9 156 16 10 8 14
36 14 89 0 119 35 110 -438 110 l-402 0 -16 -25z M16831 1053 c-16 -31 -14
-578 3 -667 27 -141 103 -242 223 -298 57 -27 81 -32 171 -36 233 -10 370 69
444 259 19 50 21 78 25 390 6 398 15 369 -111 369 -55 0 -87 -4 -94 -12 -6 -8
-13 -135 -17 -318 -7 -266 -10 -312 -27 -358 -23 -63 -64 -97 -135 -113 -95
-22 -195 27 -239 118 -16 34 -18 71 -21 348 -3 275 -6 311 -20 323 -11 7 -50
12 -105 12 -73 0 -89 -3 -97 -17z M17957 1055 c-21 -20 -30 -262 -24 -652 3
-220 8 -317 16 -327 18 -22 192 -30 381 -17 175 12 239 24 317 62 57 28 191
160 199 198 4 14 10 31 14 36 8 10 15 34 41 138 14 57 -3 206 -31 272 -10 22
-21 50 -26 62 -12 30 -110 130 -154 158 -107 66 -216 85 -497 85 -181 0 -224
-3 -236 -15z m561 -225 c130 -56 184 -206 132 -372 -26 -84 -80 -138 -167
-167 -50 -17 -88 -21 -188 -21 l-125 0 0 296 0 297 148 -5 c124 -4 155 -9 200
-28z"/>
</g>
</svg>